<?xml version="1.0" encoding="UTF-8" standalone="no"?>
<!-- Created with Inkscape (http://www.inkscape.org/) -->

<svg
   width="1080"
   height="1080"
   viewBox="0 0 285.74999 285.75"
   version="1.1"
   id="svg1"
   inkscape:version="1.3.2 (091e20ef0f, 2023-11-25)"
   sodipodi:docname="logo.svg"
   inkscape:export-filename="logo_light_with_bg.png"
   inkscape:export-xdpi="96"
   inkscape:export-ydpi="96"
   xmlns:inkscape="http://www.inkscape.org/namespaces/inkscape"
   xmlns:sodipodi="http://sodipodi.sourceforge.net/DTD/sodipodi-0.dtd"
   xmlns="http://www.w3.org/2000/svg"
   xmlns:svg="http://www.w3.org/2000/svg">
  <sodipodi:namedview
     id="namedview1"
     pagecolor="#ffffff"
     bordercolor="#000000"
     borderopacity="0.25"
     inkscape:showpageshadow="2"
     inkscape:pageopacity="0.0"
     inkscape:pagecheckerboard="0"
     inkscape:deskcolor="#d1d1d1"
     inkscape:document-units="mm"
     showguides="true"
     inkscape:zoom="1"
     inkscape:cx="511"
     inkscape:cy="534.5"
     inkscape:window-width="2560"
     inkscape:window-height="1403"
     inkscape:window-x="0"
     inkscape:window-y="0"
     inkscape:window-maximized="1"
     inkscape:current-layer="layer1">
    <sodipodi:guide
       position="142.875,285.75"
       orientation="1,0"
       id="guide1"
       inkscape:locked="false" />
    <sodipodi:guide
       position="0,142.875"
       orientation="0,-1"
       id="guide2"
       inkscape:locked="false" />
  </sodipodi:namedview>
  <defs
     id="defs1">
    <pattern
       patternUnits="userSpaceOnUse"
       width="26.032984"
       height="560.1036"
       patternTransform="translate(338.45111,85.363395)"
       preserveAspectRatio="xMidYMid"
       id="pattern3">
      <rect
         style="fill-opacity:1;stroke-width:1.10995"
         id="rect3-2"
         width="26.032984"
         height="560.10358"
         x="0"
         y="0" />
    </pattern>
  </defs>
  <g
     inkscape:label="Layer 1"
     inkscape:groupmode="layer"
     id="layer1">
    <rect
       style="display:inline;fill:#ffffff;fill-opacity:1;stroke-width:0.264583"
       id="rect1"
       width="285.75"
       height="285.75"
       x="0"
       y="0" />
  </g>
  <g
     inkscape:groupmode="layer"
     id="layer2"
     inkscape:label="Aperture">
    <path
       id="path4"
       style="display:inline;opacity:1;stroke-width:0.264583;fill:#000000;fill-opacity:1"
       d="m 23.299353,152.85217 66.249186,21.5253 V 35.288802 A 120.28927,120.28927 0 0 0 22.585701,142.875 a 120.28927,120.28927 0 0 0 0.713652,9.97717 z M 96.436491,32.138607 V 101.89197 L 228.90903,58.848604 A 120.28927,120.28927 0 0 0 142.875,22.585701 120.28927,120.28927 0 0 0 96.436491,32.138607 Z M 167.50347,86.04281 249.20701,198.49848 A 120.28927,120.28927 0 0 0 263.1643,142.875 120.28927,120.28927 0 0 0 234.05341,64.41984 Z M 245.554,205.18851 204.53687,148.73407 122.7615,261.28844 a 120.28927,120.28927 0 0 0 20.1135,1.87586 120.28927,120.28927 0 0 0 102.679,-57.97579 z m -130.14451,54.50055 40.94892,-56.3609 -132.485965,-43.0475 a 120.28927,120.28927 0 0 0 91.537045,99.4084 z"
       inkscape:label="Aperture" />
  </g>
  <g
     inkscape:groupmode="layer"
     id="layer3"
     inkscape:label="Stars">
    <path
       sodipodi:type="star"
       style="fill:#000000;fill-opacity:1;stroke-width:0.264583"
       id="path9-4"
       inkscape:flatsided="false"
       sodipodi:sides="5"
       sodipodi:cx="142.875"
       sodipodi:cy="105.4054"
       sodipodi:r1="15.75868"
       sodipodi:r2="5.9064236"
       sodipodi:arg1="-1.5707963"
       sodipodi:arg2="-0.94247777"
       inkscape:rounded="-0.00043064902"
       inkscape:randomized="0"
       d="m 142.875,89.646723 c -0.005,0 3.47572,10.983197 3.47171,10.980287 -0.004,-0.003 11.51722,-0.0866 11.51569,-0.0913 -0.002,-0.005 -9.37159,6.69961 -9.37006,6.69489 0.002,-0.005 3.64137,10.92677 3.64538,10.92385 0.004,-0.003 -9.26768,-6.84261 -9.26272,-6.84261 0.005,0 -9.26673,6.8397 -9.26272,6.84261 0.004,0.003 3.64384,-10.92857 3.64538,-10.92385 0.002,0.005 -9.36852,-6.6996 -9.37006,-6.69489 -0.002,0.005 11.5197,0.0884 11.51569,0.0913 -0.004,0.003 3.47667,-10.980287 3.47171,-10.980287 z"
       inkscape:transform-center-x="31.607448"
       inkscape:transform-center-y="-12.247802"
       transform="matrix(0.40632574,-1.250542,1.250542,0.40632574,-78.599387,268.4477)"
       inkscape:label="star5" />
    <path
       sodipodi:type="star"
       style="fill:#000000;fill-opacity:1;stroke-width:0.264583"
       id="path9-8"
       inkscape:flatsided="false"
       sodipodi:sides="5"
       sodipodi:cx="142.875"
       sodipodi:cy="105.4054"
       sodipodi:r1="15.75868"
       sodipodi:r2="5.9064236"
       sodipodi:arg1="-1.5707963"
       sodipodi:arg2="-0.94247777"
       inkscape:rounded="-0.00043064902"
       inkscape:randomized="0"
       d="m 142.875,89.646723 c -0.005,0 3.47572,10.983197 3.47171,10.980287 -0.004,-0.003 11.51722,-0.0866 11.51569,-0.0913 -0.002,-0.005 -9.37159,6.69961 -9.37006,6.69489 0.002,-0.005 3.64137,10.92677 3.64538,10.92385 0.004,-0.003 -9.26768,-6.84261 -9.26272,-6.84261 0.005,0 -9.26673,6.8397 -9.26272,6.84261 0.004,0.003 3.64384,-10.92857 3.64538,-10.92385 0.002,0.005 -9.36852,-6.6996 -9.37006,-6.69489 -0.002,0.005 11.5197,0.0884 11.51569,0.0913 -0.004,0.003 3.47667,-10.980287 3.47171,-10.980287 z"
       inkscape:transform-center-x="19.533757"
       inkscape:transform-center-y="24.908446"
       transform="matrix(-1.0637746,-0.77287749,0.77287749,-1.0637746,193.86331,392.31415)"
       inkscape:label="star4" />
    <path
       sodipodi:type="star"
       style="fill:#000000;fill-opacity:1;stroke-width:0.264583"
       id="path9-8-0"
       inkscape:flatsided="false"
       sodipodi:sides="5"
       sodipodi:cx="142.875"
       sodipodi:cy="105.4054"
       sodipodi:r1="15.75868"
       sodipodi:r2="5.9064236"
       sodipodi:arg1="-1.5707963"
       sodipodi:arg2="-0.94247777"
       inkscape:rounded="-0.00043064902"
       inkscape:randomized="0"
       d="m 142.875,89.646723 c -0.005,0 3.47572,10.983197 3.47171,10.980287 -0.004,-0.003 11.51722,-0.0866 11.51569,-0.0913 -0.002,-0.005 -9.37159,6.69961 -9.37006,6.69489 0.002,-0.005 3.64137,10.92677 3.64538,10.92385 0.004,-0.003 -9.26768,-6.84261 -9.26272,-6.84261 0.005,0 -9.26673,6.8397 -9.26272,6.84261 0.004,0.003 3.64384,-10.92857 3.64538,-10.92385 0.002,0.005 -9.36852,-6.6996 -9.37006,-6.69489 -0.002,0.005 11.5197,0.0884 11.51569,0.0913 -0.004,0.003 3.47667,-10.980287 3.47171,-10.980287 z"
       inkscape:transform-center-x="-19.534918"
       inkscape:transform-center-y="24.907596"
       transform="matrix(-1.0637746,0.77287747,-0.77287747,-1.0637746,395.86291,171.46356)"
       inkscape:label="star3" />
    <path
       sodipodi:type="star"
       style="fill:#000000;fill-opacity:1;stroke-width:0.264583"
       id="path9-5"
       inkscape:flatsided="false"
       sodipodi:sides="5"
       sodipodi:cx="142.875"
       sodipodi:cy="105.4054"
       sodipodi:r1="15.75868"
       sodipodi:r2="5.9064236"
       sodipodi:arg1="-1.5707963"
       sodipodi:arg2="-0.94247777"
       inkscape:rounded="-0.00043064902"
       inkscape:randomized="0"
       d="m 142.875,89.646723 c -0.005,0 3.47572,10.983197 3.47171,10.980287 -0.004,-0.003 11.51722,-0.0866 11.51569,-0.0913 -0.002,-0.005 -9.37159,6.69961 -9.37006,6.69489 0.002,-0.005 3.64137,10.92677 3.64538,10.92385 0.004,-0.003 -9.26768,-6.84261 -9.26272,-6.84261 0.005,0 -9.26673,6.8397 -9.26272,6.84261 0.004,0.003 3.64384,-10.92857 3.64538,-10.92385 0.002,0.005 -9.36852,-6.6996 -9.37006,-6.69489 -0.002,0.005 11.5197,0.0884 11.51569,0.0913 -0.004,0.003 3.47667,-10.980287 3.47171,-10.980287 z"
       inkscape:transform-center-x="-31.607002"
       inkscape:transform-center-y="-12.249183"
       transform="matrix(0.40632574,1.250542,-1.250542,0.40632574,248.24283,-88.896058)"
       inkscape:label="star2" />
    <path
       sodipodi:type="star"
       style="fill:#000000;fill-opacity:1;stroke-width:0.264583"
       id="path9"
       inkscape:flatsided="false"
       sodipodi:sides="5"
       sodipodi:cx="142.875"
       sodipodi:cy="105.4054"
       sodipodi:r1="15.75868"
       sodipodi:r2="5.9064236"
       sodipodi:arg1="-1.5707963"
       sodipodi:arg2="-0.94247777"
       inkscape:rounded="-0.00043064902"
       inkscape:randomized="0"
       d="m 142.875,89.646723 c -0.005,0 3.47572,10.983197 3.47171,10.980287 -0.004,-0.003 11.51722,-0.0866 11.51569,-0.0913 -0.002,-0.005 -9.37159,6.69961 -9.37006,6.69489 0.002,-0.005 3.64137,10.92677 3.64538,10.92385 0.004,-0.003 -9.26768,-6.84261 -9.26272,-6.84261 0.005,0 -9.26673,6.8397 -9.26272,6.84261 0.004,0.003 3.64384,-10.92857 3.64538,-10.92385 0.002,0.005 -9.36852,-6.6996 -9.37006,-6.69489 -0.002,0.005 11.5197,0.0884 11.51569,0.0913 -0.004,0.003 3.47667,-10.980287 3.47171,-10.980287 z"
       inkscape:transform-center-x="0.00072135384"
       inkscape:transform-center-y="-35.212487"
       transform="matrix(1.3148977,0,0,1.3148977,-44.990996,-28.956566)"
       inkscape:label="star1" />
  </g>
</svg>
